<svg width="17" height="17" viewBox="0 0 17 17" fill="none" xmlns="http://www.w3.org/2000/svg">
<g clip-path="url(#clip0_1_1594)">
<path d="M15.5784 7.84627V8.49777C15.5775 10.0248 15.083 11.5107 14.1687 12.7338C13.2544 13.9569 11.9691 14.8516 10.5047 15.2846C9.04035 15.7176 7.47522 15.6656 6.04278 15.1364C4.61035 14.6072 3.38735 13.6291 2.5562 12.348C1.72505 11.067 1.33028 9.55154 1.43076 8.02778C1.53123 6.50402 2.12158 5.05357 3.11374 3.89273C4.10591 2.7319 5.44674 1.92288 6.93627 1.58634C8.42579 1.24981 9.98419 1.40378 11.3791 2.02529" stroke="#F1870D" stroke-width="1.69956" stroke-linecap="round" stroke-linejoin="round"/>
<path d="M15.5786 2.83258L8.49716 9.92115L6.37271 7.7967" stroke="#F1870D" stroke-width="1.69956" stroke-linecap="round" stroke-linejoin="round"/>
</g>
<defs>
<clipPath id="clip0_1_1594">
<rect width="16.9956" height="16.9956" fill="white"/>
</clipPath>
</defs>
</svg>
