<svg width="100" height="100" viewBox="0 0 100 100" fill="none" xmlns="http://www.w3.org/2000/svg">
<g clip-path="url(#clip0_1_1652)">
<circle cx="50" cy="50" r="50" fill="#ECFBD0"/>
<path opacity="0.3" d="M63.0417 45.0833C63.9625 45.0833 64.8563 45.1646 65.75 45.3V31.5417H60.3333V39.6667H38.6667V31.5417H33.25V72.1667H45.925C44.5509 69.2783 43.9305 66.089 44.1216 62.8961C44.3128 59.7033 45.3092 56.6108 47.018 53.9069C48.7268 51.2031 51.0925 48.9759 53.8943 47.433C56.6962 45.8901 59.8431 45.0818 63.0417 45.0833ZM49.5 31.5417C48.0104 31.5417 46.7917 30.3229 46.7917 28.8333C46.7917 27.3437 48.0104 26.125 49.5 26.125C50.9896 26.125 52.2083 27.3437 52.2083 28.8333C52.2083 30.3229 50.9896 31.5417 49.5 31.5417Z" fill="#86BC24"/>
<path d="M52 64L54.5 61.5H55L60 66.5L71 56L73.5 58.5L60 72L52 64Z" fill="#DBEBBD"/>
<path d="M48.833 64C48.833 56.18 55.1797 49.8334 62.9997 49.8334C70.8197 49.8334 77.1663 56.18 77.1663 64C77.1663 71.82 70.8197 78.1667 62.9997 78.1667C55.1797 78.1667 48.833 71.82 48.833 64Z" fill="black"/>
<path d="M65.7508 26.1249H57.1383C56.0008 22.9833 53.0216 20.7083 49.5008 20.7083C45.9799 20.7083 43.0008 22.9833 41.8633 26.1249H33.2508C30.2716 26.1249 27.8341 28.5624 27.8341 31.5416V72.1666C27.8341 75.1458 30.2716 77.5833 33.2508 77.5833H49.7987C48.1964 76.028 46.8928 74.1921 45.9528 72.1666H33.2508V31.5416H38.6674V39.6666H60.3341V31.5416H65.7508V45.2999C67.6737 45.5708 69.4883 46.1395 71.1674 46.9249V31.5416C71.1674 28.5624 68.7299 26.1249 65.7508 26.1249ZM49.5008 31.5416C48.0112 31.5416 46.7924 30.3228 46.7924 28.8333C46.7924 27.3437 48.0112 26.1249 49.5008 26.1249C50.9903 26.1249 52.2091 27.3437 52.2091 28.8333C52.2091 30.3228 50.9903 31.5416 49.5008 31.5416Z" fill="#86BC24"/>
<path d="M60.1663 71.0833L53.083 64L55.0805 62.0025L60.1663 67.0742L70.9188 56.3217L72.9163 58.3333L60.1663 71.0833Z" fill="#DBEBBD"/>
</g>
<defs>
<clipPath id="clip0_1_1652">
<rect width="100" height="100" fill="white"/>
</clipPath>
</defs>
</svg>
