<svg width="256" height="72" viewBox="0 0 256 72" fill="none" xmlns="http://www.w3.org/2000/svg">
<rect x="16" y="8" width="56" height="56" rx="8" fill="#86BC24"/>
<path fill-rule="evenodd" clip-rule="evenodd" d="M36 37H42C42.55 37 43 36.55 43 36V28C43 27.45 42.55 27 42 27H36C35.45 27 35 27.45 35 28V36C35 36.55 35.45 37 36 37ZM36 45H42C42.55 45 43 44.55 43 44V40C43 39.45 42.55 39 42 39H36C35.45 39 35 39.45 35 40V44C35 44.55 35.45 45 36 45ZM46 45H52C52.55 45 53 44.55 53 44V36C53 35.45 52.55 35 52 35H46C45.45 35 45 35.45 45 36V44C45 44.55 45.45 45 46 45ZM45 28V32C45 32.55 45.45 33 46 33H52C52.55 33 53 32.55 53 32V28C53 27.45 52.55 27 52 27H46C45.45 27 45 27.45 45 28Z" fill="white"/>
</svg>
