<svg width="256" height="72" viewBox="0 0 256 72" fill="none" xmlns="http://www.w3.org/2000/svg">
<path fill-rule="evenodd" clip-rule="evenodd" d="M44 26C38.48 26 34 30.48 34 36C34 41.52 38.48 46 44 46C49.52 46 54 41.52 54 36C54 30.48 49.52 26 44 26ZM44 44C39.59 44 36 40.41 36 36C36 31.59 39.59 28 44 28C48.41 28 52 31.59 52 36C52 40.41 48.41 44 44 44ZM38.5 41.5L46.01 38.01L49.5 30.5L41.99 33.99L38.5 41.5ZM44 34.9C44.61 34.9 45.1 35.39 45.1 36C45.1 36.61 44.61 37.1 44 37.1C43.39 37.1 42.9 36.61 42.9 36C42.9 35.39 43.39 34.9 44 34.9Z" fill="#9AB0A0"/>
</svg>
