<svg width="16" height="16" viewBox="0 0 16 16" fill="none" xmlns="http://www.w3.org/2000/svg">
<path fill-rule="evenodd" clip-rule="evenodd" d="M7.33333 5.3333V8.66664L10.1667 10.3466L10.68 9.4933L8.33333 8.09997V5.3333H7.33333ZM14 6.66664V1.99997L12.24 3.75997C11.16 2.6733 9.66 1.99997 8 1.99997C4.68667 1.99997 2 4.68664 2 7.99997C2 11.3133 4.68667 14 8 14C11.3133 14 14 11.3133 14 7.99997H12.6667C12.6667 10.5733 10.5733 12.6666 8 12.6666C5.42667 12.6666 3.33333 10.5733 3.33333 7.99997C3.33333 5.42664 5.42667 3.3333 8 3.3333C9.28667 3.3333 10.4533 3.85997 11.3 4.69997L9.33333 6.66664H14Z" fill="#1D1D1D"/>
</svg>
