<svg width="25" height="25" viewBox="0 0 25 25" fill="none" xmlns="http://www.w3.org/2000/svg">
<path d="M19.6699 11.2251H5.66992C4.56535 11.2251 3.66992 12.1205 3.66992 13.2251V20.2251C3.66992 21.3297 4.56535 22.2251 5.66992 22.2251H19.6699C20.7745 22.2251 21.6699 21.3297 21.6699 20.2251V13.2251C21.6699 12.1205 20.7745 11.2251 19.6699 11.2251Z" stroke="#9AB0A0" stroke-width="2" stroke-linecap="round" stroke-linejoin="round"/>
<path d="M7.66992 11.2251V7.2251C7.66992 5.89902 8.19671 4.62725 9.13439 3.68956C10.0721 2.75188 11.3438 2.2251 12.6699 2.2251C13.996 2.2251 15.2678 2.75188 16.2055 3.68956C17.1431 4.62725 17.6699 5.89902 17.6699 7.2251V11.2251" stroke="#9AB0A0" stroke-width="2" stroke-linecap="round" stroke-linejoin="round"/>
</svg>
