<svg width="256" height="72" viewBox="0 0 256 72" fill="none" xmlns="http://www.w3.org/2000/svg">
<path d="M37 26V42H37.051C36.9769 42.3632 36.9844 42.7383 37.0731 43.0982C37.1618 43.4581 37.3294 43.7938 37.5638 44.0809C37.7983 44.3681 38.0936 44.5995 38.4284 44.7585C38.7633 44.9174 39.1293 44.9999 39.5 45H50V42H51V26H37ZM48 43H39.5C39.3674 43 39.2402 42.9473 39.1464 42.8536C39.0527 42.7598 39 42.6326 39 42.5C39 42.3674 39.0527 42.2402 39.1464 42.1464C39.2402 42.0527 39.3674 42 39.5 42H48V43ZM39.5 40C39.332 40.0002 39.1645 40.0172 39 40.051V28H49V40H39.5Z" fill="#9AB0A0"/>
<path d="M47 30H41V32H47V30Z" fill="#9AB0A0"/>
</svg>
