<svg width="48" height="48" viewBox="0 0 48 48" fill="none" xmlns="http://www.w3.org/2000/svg">
<path d="M33 29H31.781L31 25.877V22C30.998 20.3182 30.3906 18.6932 29.2888 17.4225C28.187 16.1518 26.6646 15.3203 25 15.08V14H23V15.08C21.3354 15.3203 19.813 16.1518 18.7112 17.4225C17.6094 18.6932 17.002 20.3182 17 22V25.877L16.219 29H15V31H20.142C20.3603 31.8576 20.8581 32.618 21.5567 33.1611C22.2554 33.7042 23.1151 33.9991 24 33.9991C24.8849 33.9991 25.7446 33.7042 26.4433 33.1611C27.1419 32.618 27.6397 31.8576 27.858 31H33V29ZM18.97 26.243L19 22C19 20.6739 19.5268 19.4021 20.4645 18.4645C21.4021 17.5268 22.6739 17 24 17C25.3261 17 26.5979 17.5268 27.5355 18.4645C28.4732 19.4021 29 20.6739 29 22V26L29.728 29H18.281L18.97 26.243ZM24 32C23.6505 31.9989 23.3074 31.906 23.0052 31.7305C22.7029 31.555 22.4521 31.303 22.278 31H25.722C25.5479 31.303 25.2971 31.555 24.9948 31.7305C24.6926 31.906 24.3495 31.9989 24 32Z" fill="#9A9AB0"/>
</svg>
