<svg width="100" height="100" viewBox="0 0 100 100" fill="none" xmlns="http://www.w3.org/2000/svg">
<g clip-path="url(#clip0_1_1643)">
<circle cx="50" cy="50" r="50" fill="#ECFBD0"/>
<path opacity="0.3" d="M66.5104 70.4062L60.6875 64.5833V55.9167H63.3958V63.4729L68.4062 68.4833L66.5104 70.4062ZM62.0417 45.0833C62.9625 45.0833 63.8562 45.1646 64.75 45.3V31.5417H59.3333V39.6667H37.6667V31.5417H32.25V72.1667H44.925C43.5509 69.2783 42.9305 66.089 43.1216 62.8961C43.3128 59.7033 44.3092 56.6108 46.018 53.9069C47.7268 51.2031 50.0925 48.9759 52.8943 47.433C55.6962 45.8901 58.8431 45.0818 62.0417 45.0833ZM48.5 31.5417C47.0104 31.5417 45.7917 30.3229 45.7917 28.8333C45.7917 27.3437 47.0104 26.125 48.5 26.125C49.9896 26.125 51.2083 27.3437 51.2083 28.8333C51.2083 30.3229 49.9896 31.5417 48.5 31.5417Z" fill="#86BC24"/>
<path d="M48.501 64.0415C48.501 56.5665 54.5676 50.4999 62.0426 50.4999C69.5176 50.4999 75.5843 56.5665 75.5843 64.0415C75.5843 71.5165 69.5176 77.5832 62.0426 77.5832C54.5676 77.5832 48.501 71.5165 48.501 64.0415Z" fill="#E86F00"/>
<path d="M64.7508 26.1249H56.1383C55.0008 22.9833 52.0216 20.7083 48.5008 20.7083C44.9799 20.7083 42.0008 22.9833 40.8633 26.1249H32.2508C29.2716 26.1249 26.8341 28.5624 26.8341 31.5416V72.1666C26.8341 75.1458 29.2716 77.5833 32.2508 77.5833H48.7987C47.1964 76.028 45.8928 74.1921 44.9528 72.1666H32.2508V31.5416H37.6674V39.6666H59.3341V31.5416H64.7508V45.2999C66.6737 45.5708 68.4883 46.1395 70.1674 46.9249V31.5416C70.1674 28.5624 67.7299 26.1249 64.7508 26.1249ZM48.5008 31.5416C47.0112 31.5416 45.7924 30.3228 45.7924 28.8333C45.7924 27.3437 47.0112 26.1249 48.5008 26.1249C49.9903 26.1249 51.2091 27.3437 51.2091 28.8333C51.2091 30.3228 49.9903 31.5416 48.5008 31.5416Z" fill="#86BC24"/>
<path d="M60.6885 64.5833L66.5114 70.4062L68.4072 68.4833L63.3968 63.4729V55.9166H60.6885V64.5833Z" fill="#DBEBBD"/>
</g>
<defs>
<clipPath id="clip0_1_1643">
<rect width="100" height="100" fill="white"/>
</clipPath>
</defs>
</svg>
