<svg width="256" height="72" viewBox="0 0 256 72" fill="none" xmlns="http://www.w3.org/2000/svg">
<path fill-rule="evenodd" clip-rule="evenodd" d="M51.43 36.98C51.47 36.66 51.5 36.34 51.5 36C51.5 35.66 51.47 35.34 51.43 35.02L53.54 33.37C53.73 33.22 53.78 32.95 53.66 32.73L51.66 29.27C51.57 29.11 51.4 29.02 51.22 29.02C51.16 29.02 51.1 29.03 51.05 29.05L48.56 30.05C48.04 29.65 47.48 29.32 46.87 29.07L46.49 26.42C46.46 26.18 46.25 26 46 26H42C41.75 26 41.54 26.18 41.51 26.42L41.13 29.07C40.52 29.32 39.96 29.66 39.44 30.05L36.95 29.05C36.89 29.03 36.83 29.02 36.77 29.02C36.6 29.02 36.43 29.11 36.34 29.27L34.34 32.73C34.21 32.95 34.27 33.22 34.46 33.37L36.57 35.02C36.53 35.34 36.5 35.67 36.5 36C36.5 36.33 36.53 36.66 36.57 36.98L34.46 38.63C34.27 38.78 34.22 39.05 34.34 39.27L36.34 42.73C36.43 42.89 36.6 42.98 36.78 42.98C36.84 42.98 36.9 42.97 36.95 42.95L39.44 41.95C39.96 42.35 40.52 42.68 41.13 42.93L41.51 45.58C41.54 45.82 41.75 46 42 46H46C46.25 46 46.46 45.82 46.49 45.58L46.87 42.93C47.48 42.68 48.04 42.34 48.56 41.95L51.05 42.95C51.11 42.97 51.17 42.98 51.23 42.98C51.4 42.98 51.57 42.89 51.66 42.73L53.66 39.27C53.78 39.05 53.73 38.78 53.54 38.63L51.43 36.98ZM49.45 35.27C49.49 35.58 49.5 35.79 49.5 36C49.5 36.21 49.48 36.43 49.45 36.73L49.31 37.86L50.2 38.56L51.28 39.4L50.58 40.61L49.31 40.1L48.27 39.68L47.37 40.36C46.94 40.68 46.53 40.92 46.12 41.09L45.06 41.52L44.9 42.65L44.7 44H43.3L43.11 42.65L42.95 41.52L41.89 41.09C41.46 40.91 41.06 40.68 40.66 40.38L39.75 39.68L38.69 40.11L37.42 40.62L36.72 39.41L37.8 38.57L38.69 37.87L38.55 36.74C38.52 36.43 38.5 36.2 38.5 36C38.5 35.8 38.52 35.57 38.55 35.27L38.69 34.14L37.8 33.44L36.72 32.6L37.42 31.39L38.69 31.9L39.73 32.32L40.63 31.64C41.06 31.32 41.47 31.08 41.88 30.91L42.94 30.48L43.1 29.35L43.3 28H44.69L44.88 29.35L45.04 30.48L46.1 30.91C46.53 31.09 46.93 31.32 47.33 31.62L48.24 32.32L49.3 31.89L50.57 31.38L51.27 32.59L50.2 33.44L49.31 34.14L49.45 35.27ZM44 32C41.79 32 40 33.79 40 36C40 38.21 41.79 40 44 40C46.21 40 48 38.21 48 36C48 33.79 46.21 32 44 32ZM44 38C42.9 38 42 37.1 42 36C42 34.9 42.9 34 44 34C45.1 34 46 34.9 46 36C46 37.1 45.1 38 44 38Z" fill="#9AB0A0"/>
</svg>
