<svg width="48" height="48" viewBox="0 0 48 48" fill="none" xmlns="http://www.w3.org/2000/svg">
<path fill-rule="evenodd" clip-rule="evenodd" d="M30 18C29.4477 18 29 17.5523 29 17C29 16.4477 29.4477 16 30 16C30.5523 16 31 16.4477 31 17C31 17.5523 30.5523 18 30 18ZM18 25C17.4477 25 17 24.5523 17 24C17 23.4477 17.4477 23 18 23C18.5523 23 19 23.4477 19 24C19 24.5523 18.5523 25 18 25ZM30 32.02C29.4477 32.02 29 31.5723 29 31.02C29 30.4677 29.4477 30.02 30 30.02C30.5523 30.02 31 30.4677 31 31.02C31 31.5723 30.5523 32.02 30 32.02Z" fill="#D0D0D0"/>
<path fill-rule="evenodd" clip-rule="evenodd" d="M30 28.08C29.24 28.08 28.56 28.38 28.04 28.85L20.91 24.7C20.96 24.47 21 24.24 21 24C21 23.76 20.96 23.53 20.91 23.3L27.96 19.19C28.5 19.69 29.21 20 30 20C31.66 20 33 18.66 33 17C33 15.34 31.66 14 30 14C28.34 14 27 15.34 27 17C27 17.24 27.04 17.47 27.09 17.7L20.04 21.81C19.5 21.31 18.79 21 18 21C16.34 21 15 22.34 15 24C15 25.66 16.34 27 18 27C18.79 27 19.5 26.69 20.04 26.19L27.16 30.35C27.11 30.56 27.08 30.78 27.08 31C27.08 32.61 28.39 33.92 30 33.92C31.61 33.92 32.92 32.61 32.92 31C32.92 29.39 31.61 28.08 30 28.08ZM30 16C30.55 16 31 16.45 31 17C31 17.55 30.55 18 30 18C29.45 18 29 17.55 29 17C29 16.45 29.45 16 30 16ZM18 25C17.45 25 17 24.55 17 24C17 23.45 17.45 23 18 23C18.55 23 19 23.45 19 24C19 24.55 18.55 25 18 25ZM30 32.02C29.45 32.02 29 31.57 29 31.02C29 30.47 29.45 30.02 30 30.02C30.55 30.02 31 30.47 31 31.02C31 31.57 30.55 32.02 30 32.02Z" fill="#1D1D1D"/>
</svg>
